<?xml version="1.0" encoding="UTF-8"?>
<svg id="Layer_2" data-name="Layer 2" xmlns="http://www.w3.org/2000/svg" viewBox="0 0 518.46 244.03">
  <defs>
    <style>
      .cls-1 {
        fill: #334599;
      }
    </style>
  </defs>
  <g id="Layer_1-2" data-name="Layer 1">
    <g>
      <path class="cls-1" d="m110.37,61.94c-26.71,0-48.42,21.72-48.42,48.42s21.72,48.42,48.42,48.42,48.42-21.71,48.42-48.42-21.72-48.42-48.42-48.42Zm0,79.85c-17.32,0-31.43-14.1-31.43-31.43s14.11-31.42,31.43-31.42,31.44,14.1,31.44,31.42-14.11,31.43-31.44,31.43Z"/>
      <path class="cls-1" d="m381.2,70.89c-.1,0-.21.01-.31.02l43-1.85-42.69,1.83Zm-15.65.67l-12.95.56,13.35-.57c-.13,0-.27.01-.4.01Zm-47.38,2.03l-41.87,1.8c-.13.01-.26.01-.39.03l42.68-1.83c-.14-.01-.28,0-.42,0Zm-58.43,2.51l-.42.03,1.4-.06c-.32,0-.65.02-.98.03Z"/>
      <path class="cls-1" d="m515.52,77.54c-3.03-5.19-9.53-11.36-23.29-11.36-.72,0-1.46.01-2.22.05l-38.77,1.66-26.99,1.16c-.12,0-.24,0-.36.01l-43,1.85-14.85.64h-.09l-13.35.57-6.53.29-27.48,1.18-42.68,1.83-15.19.65-1.4.06c-14.64-36.97-48.68-64.16-89.54-69-1.4-.22-2.8-.4-4.22-.57-1.39-.21-2.79-.41-4.21-.57-1.38-.24-2.79-.41-4.22-.59-1.38-.21-2.78-.41-4.18-.57-1.4-.24-2.8-.42-4.21-.59-1.4-.21-2.8-.41-4.21-.57-1.4-.21-2.81-.41-4.22-.57-1.39-.24-2.79-.41-4.2-.59-1.4-.21-2.8-.41-4.2-.57-1.4-.24-2.81-.42-4.22-.59-5.64-.89-11.43-1.35-17.32-1.35C49.41,0,0,49.42,0,110.36c0,56.52,42.48,103.11,97.26,109.59,1.38.22,2.8.41,4.19.58,1.4.22,2.81.42,4.21.58,1.4.22,2.8.41,4.21.58,1.4.22,2.8.42,4.21.57,1.39.21,2.8.42,4.21.58,1.4.22,2.8.41,4.21.58,1.39.22,2.79.42,4.2.58,1.4.22,2.8.41,4.21.58,1.4.22,2.81.42,4.22.57,1.39.22,2.8.42,4.2.58,5.63.89,11.43,1.37,17.33,1.37,1.95,0,3.9-.05,5.84-.16-.18,4.19,1.27,7.36,2.18,8.92,1.44,2.45,5.78,8.17,15.04,8.17.32,0,.65,0,.97-.03l19.48-.83c2.78-.12,12.1-.63,14.45-.63.31,0,.63-.02.96-.03l19.48-.84c4.54-.19,19.74-1.13,25.52-1.13.61,0,1.24-.01,1.91-.04l30.98-1.33c4.08-.17,30.23-1.62,37.21-1.62.61,0,1.25-.03,1.92-.05l30.97-1.33c4.08-.18,22.66-1.16,26.45-1.16.31,0,.64,0,.99-.02l19.55-.85c2.66-.09,11.65-.6,13.91-.6.33,0,.66,0,1.02-.03l14.39-.61,5.08-.22c7.68-.33,14.09-4.18,18.14-10.94l8.61-14.99c2.97-5.26,12.25-22.7,15.04-27.72l2.32-4.19c6.96-12.02,3.84-20.81,1.37-24.97-.5-.84-1.13-1.77-1.95-2.74,2.3-2.62,4.4-5.69,6.36-9.23l18.47-32.74c6.01-10.51,6.75-19.82,2.2-27.62ZM110.37,214.37c-57.45,0-104-46.56-104-104.01S52.92,6.36,110.37,6.36c46.25,0,85.44,30.17,98.96,71.92-4.66.31-9.11,1.75-13.21,4.26-.08.05-.15.09-.22.14-11.7-36.07-45.61-62.2-85.53-62.2-49.57,0-89.9,40.32-89.9,89.88s40.33,89.9,89.9,89.9c25.66,0,48.85-10.8,65.24-28.11l15.9-.69-6.22,11.03c-18.9,19.66-45.47,31.88-74.92,31.88Zm61.89-104.01c0,2.68-.16,5.32-.51,7.91l-14,24.89c-2.23,3.87-3.03,7.39-3.11,10.41-11.25,11.52-26.94,18.68-44.27,18.68-34.13,0-61.89-27.76-61.89-61.89s27.76-61.89,61.89-61.89,61.89,27.76,61.89,61.89Zm336.71-7.7l-18.46,32.78c-1.78,3.18-3.67,5.94-5.7,8.29-1.15,1.33-2.35,2.52-3.59,3.58,1.57,1.01,2.8,2.2,3.72,3.4.48.57.86,1.16,1.2,1.71,2.34,3.95,4,10.6-1.39,19.93l-2.37,4.25c-2.93,5.23-11.94,22.24-15.03,27.7l-8.59,14.94c-3.1,5.19-8.09,8.19-14,8.44l-19.49.84c-.27.02-.53.03-.8.03-2.7,0-11.33.49-14.14.61l-19.54.84c-.27,0-.52,0-.77,0-1.29,0-22.87,1.01-26.65,1.15l-31.01,1.35c-.57.01-1.13.04-1.68.04-4.84,0-33.63,1.46-37.41,1.63l-31.01,1.32c-.57.03-1.14.03-1.68.03-3.96,0-22.8,1.04-25.74,1.15l-19.46.83c-.27.01-.53.02-.76.02-2.83,0-11.73.52-14.66.64l-19.47.84c-.28.01-.54.03-.77.03-6.67,0-9.71-4-10.73-5.71-.8-1.39-1.76-3.71-1.47-6.77.16-1.72.71-3.67,1.89-5.77l27.98-49.56,2.9-5.14-2.15.09-3.73.16-14.26.62-5.1.22c-.33.01-.66.02-.99.02-7.67,0-11.23-4.12-12.67-6.57-1.5-2.53-3.41-7.85.7-15l28.18-50.04c1.75-3.14,4.13-5.79,7.11-7.89.43-.32.89-.61,1.36-.9,3.58-2.2,7.47-3.39,11.57-3.57l.48-.03s64.55-2.77,65.72-2.82c0,0,103.98-4.45,104.92-4.49l108.79-4.67c.69-.04,1.36-.04,2.01-.04,11.4,0,16.61,4.82,18.97,8.88,3.59,6.15,2.85,13.76-2.23,22.6Z"/>
      <path class="cls-1" d="m203.89,155.93l19.49-.84,1.7-.07c2.65-.11,4.6-1.31,5.86-3.58l1.04-1.85,13.47-23.81c1.15-2.11,1.4-3.76.72-4.95-.67-1.19-2.2-1.73-4.58-1.63l-2.01.09-13.57.58c-2.65.11-4.6,1.33-5.86,3.66l-10.91,19.18-1.03,1.82c-.6,1.12-.76,1.95-.49,2.51.29.6,1.1.88,2.42.82l13.47-.58c.22-.01.41-.01.58.01,1.07.11,1.26.74.56,1.89-.15.28-.31.53-.5.75-.25.3-.53.56-.86.76-.57.36-1.26.55-2.05.59l-13.32.57-2.29.1-5.56.24c-1.09.04-1.83-.21-2.23-.76-.4-.55-.3-1.35.3-2.41l15.55-27.58,12.25-21.73c1.32-2.23,3.22-3.39,5.7-3.5,2.55-.11,3.19.95,1.93,3.17l-5.14,9.16c-1.31,2.33-.66,3.45,1.94,3.33l13.63-.58,5.03-.22c2.59-.11,4.55-1.33,5.85-3.66l7.33-13c1.31-2.33.67-3.44-1.93-3.33l-4.99.21-42.44,1.82-2.22.1c-2.38.1-4.64.81-6.78,2.12-1.8,1.1-3.25,2.48-4.35,4.15-.21.31-.41.64-.59.98l-28.26,50.14c-1.21,2.12-1.46,3.76-.76,4.95.7,1.19,2.24,1.74,4.62,1.63l12.8-.55,13.99-.6,2.49-.1Z"/>
      <path class="cls-1" d="m328.01,91.88c-.72-1.2-1.85-2.08-3.38-2.62-1.53-.55-3.47-.78-5.83-.68l-40.98,1.74-.9.04c-2.65.14-4.59,1.34-5.85,3.68l-4.94,8.73-26.55,47.03-.69,1.23c-1.31,2.33-.67,3.44,1.93,3.32l5.85-.24,13.7-.59c.12,0,.25,0,.37-.03,2.32-.2,4.14-1.42,5.49-3.64l.98-1.76,13-23.22c1.25-2.33,3.2-3.55,5.85-3.66,2.43-.11,3,.97,1.68,3.26l-13.67,23.95-.69,1.22c-1.24,2.04-.84,3.12,1.18,3.23.22.03.48.03.75,0l6.76-.29,11.1-.47,1.62-.07c2.54-.12,4.5-1.31,5.86-3.59l1.21-2.08,7.27-12.67c2.52-4.44,3.12-7.8,1.79-10.07-.75-1.32-2.13-2.21-4.15-2.7-1.46-.35-3.24-.49-5.36-.39h-.32c2.27-.08,4.42-.41,6.45-.98h.02c2.5-.7,4.84-1.76,7.02-3.16,3.96-2.55,7.14-5.99,9.54-10.32l2.43-4.34c2.41-4.16,2.9-7.45,1.48-9.86Zm-24.25,4.5l-9.83,17.24c-1.25,2.34-3.2,3.55-5.85,3.67-2.43,0-3.03-1.12-1.76-3.34l9.82-17.24c1.21-2.23,3.07-3.39,5.62-3.5,2.55-.1,3.21.95,1.99,3.17Z"/>
      <path class="cls-1" d="m308.68,148.03c-1.32,2.33-.67,3.44,1.93,3.33l5.81-.25,11.87-.51,1.79-.08c2.59-.11,4.55-1.33,5.86-3.66l.62-1.1,31.56-55.88c1.26-2.33.61-3.44-1.93-3.33l-5.88.25-13.59.58c-1.51.07-2.8.49-3.86,1.28-.79.59-1.47,1.39-2,2.39l-31.04,54.96-1.14,2.02Z"/>
      <path class="cls-1" d="m343.2,148.03c-.21,1.04.3,1.64,1.51,1.79h.01c.3.04.64.05,1.02.03l.37-.02h.01l5.5-.23,13.59-.58c2.6-.11,4.55-1.34,5.86-3.67l1.13-2.01,28.86-51.13c1.31-2.23,3.19-3.39,5.62-3.49,2.65-.12,3.32.94,2.01,3.16l-28.86,51.14-1.14,2.01c-1.3,2.33-.66,3.44,1.94,3.33l17.69-.76,1.78-.08c2.6-.11,4.55-1.33,5.86-3.66l.63-1.11,25.65-45.54c2.53-4.44,3.13-7.8,1.81-10.07-.75-1.31-2.12-2.2-4.09-2.69-1.47-.36-3.28-.49-5.43-.4l-40.94,1.76-1.74.07c-2.65.11-4.6,1.33-5.86,3.66l-32.18,56.98c-.33.58-.53,1.08-.61,1.51Z"/>
      <path class="cls-1" d="m502.57,85.09c-1.66-2.84-5.63-4.15-11.93-3.87l-38.77,1.66c-1.16.04-2.18.31-3.06.78-1.16.61-2.09,1.57-2.79,2.88l-32.18,56.99c-.32.54-.52,1.03-.6,1.45-.06.24-.08.48-.05.66.1.88.95,1.28,2.57,1.21h.48s5.39-.23,5.39-.23l36.82-1.6c5.85-.24,10.48-1.42,13.91-3.55.83-.52,1.64-1.12,2.44-1.82,2.5-2.16,4.83-5.21,7-9.12l18.52-32.81c3.17-5.56,3.92-9.76,2.27-12.62Zm-23.87,3.79l-27.79,49.32c-.44.74-.93,1.35-1.49,1.85-1.15,1.03-2.55,1.58-4.21,1.65-1.74.06-2.61-.39-2.6-1.36,0-.48.22-1.07.66-1.81l27.8-49.32c1.31-2.23,3.2-3.39,5.63-3.49,2.65-.11,3.31.95,1.99,3.16Z"/>
      <path class="cls-1" d="m251.15,195.16c-.66-1.14-1.7-2.03-3.13-2.66-2.06-.92-4.93-1.3-8.61-1.14l-1.5.06-.37.02c-1.46.06-1.81-.57-1.05-1.91.7-1.33,1.81-2.02,3.32-2.09l1.38-.06c.09,0,.18,0,.27-.02,3.79-.18,7.35-.91,10.69-2.2h.01c1.9-.72,3.72-1.62,5.48-2.71,4.91-3.03,8.88-7.24,11.9-12.62l1.32-2.36.64-1.14c1.31-2.33.67-3.44-1.93-3.33l-4.74.2h-.01l-8.2.36-5.71.24c-2.6.11-4.55,1.33-5.86,3.66l-.99,1.76-8.53,15.15c-1.36,2.23-3.27,3.39-5.7,3.5-2.65.11-3.29-.94-1.92-3.17l8.82-15.68.69-1.23c.49-.88.71-1.58.64-2.11-.09-.88-.95-1.29-2.57-1.22l-7.16.31h-.01l-12.3.52c-2.65.12-4.6,1.34-5.86,3.67l-.99,1.76-30.6,54.19-.44.78c-1.31,2.33-.67,3.44,1.93,3.33l19.47-.84c2.65-.11,4.6-1.33,5.86-3.66l7.1-12.58,9.37-16.58c1.31-2.22,3.21-3.39,5.7-3.49,2.6-.11,3.24.94,1.93,3.17l-4.9,8.67-11.57,20.48c-1.26,2.33-.62,3.44,1.93,3.33l19.47-.83c1.18-.05,2.24-.33,3.14-.83,1.12-.6,2.02-1.55,2.72-2.84l8.69-15.41c3.07-5.49,3.8-9.64,2.18-12.45Z"/>
      <path class="cls-1" d="m338.68,163.7s0,0,.03,0c-.02,0-.03,0-.04,0-.06-.13-.13-.25-.19-.38-.73-1.27-2.01-2.13-3.87-2.62-.38-.11-.79-.2-1.22-.27h-.02c-1.26-.2-2.73-.27-4.42-.19l-19.32.83-11.67.5h-.11c-3.15.16-5.83.44-8.07.88-.93.19-1.84.44-2.69.74-1.18.41-2.26.93-3.27,1.54-1.26.8-2.44,1.79-3.56,2.99-.4.43-.79.89-1.16,1.37-1.45,1.83-2.98,4.15-4.58,6.99l-20.47,36.32c-2.47,4.45-3.05,7.79-1.73,10.08.74,1.27,2.07,2.16,4.01,2.66,1.49.37,3.33.52,5.52.43l31-1.34c3.19-.13,5.89-.45,8.13-.9,2.23-.48,4.19-1.26,5.94-2.33.07-.05.15-.1.21-.14,1.66-1.07,3.18-2.46,4.57-4.17,1.43-1.8,2.94-4.12,4.49-6.94l20.47-36.32c2.38-4.2,3.05-7.42,2.01-9.68Zm-25.58,4.34l-27.8,49.31c-1.29,2.24-3.21,3.4-5.69,3.5-2.61.11-3.24-.93-1.94-3.17l27.81-49.31c.54-.91,1.18-1.65,1.94-2.2,1.05-.8,2.32-1.25,3.77-1.29,1.74-.08,2.61.38,2.59,1.36-.02.47-.23,1.07-.67,1.8Z"/>
      <path class="cls-1" d="m408.8,160.72s-.03-.04-.04-.06c-.06-.13-.12-.25-.19-.37-.74-1.28-2.07-2.17-4.01-2.67-.37-.1-.75-.18-1.18-.23h0c-1.25-.19-2.69-.24-4.31-.18l-31,1.32c-3.2.15-5.93.44-8.17.89-2.26.44-4.25,1.22-5.96,2.29-.06.04-.13.08-.18.12-1.19.78-2.31,1.71-3.37,2.85-.39.43-.8.89-1.18,1.37-1.44,1.82-2.97,4.16-4.57,6.99l-20.47,36.32c-2.47,4.45-3.05,7.8-1.73,10.07.73,1.25,2.01,2.12,3.84,2.62h.02c1.51.41,3.4.56,5.66.48l31-1.33c3.18-.15,5.9-.44,8.13-.92.59-.13,1.19-.27,1.75-.44,1.53-.47,2.92-1.1,4.2-1.88,1.73-1.08,3.33-2.52,4.76-4.31,1.46-1.8,2.95-4.12,4.51-6.94l20.47-36.32c2.36-4.17,3.04-7.4,2.02-9.65Zm-25.59,4.32l-27.81,49.31c-1.31,2.22-3.2,3.39-5.69,3.5-2.61.11-3.24-.95-1.92-3.17l27.8-49.33c.53-.9,1.18-1.63,1.9-2.19,1.06-.8,2.33-1.22,3.79-1.29,1.74-.06,2.61.38,2.59,1.36-.02.47-.23,1.07-.66,1.81Z"/>
      <path class="cls-1" d="m477.55,157.54c-.28-.5-.66-.92-1.08-1.3-1.67-1.49-4.38-2.16-8.12-1.99l-41.87,1.79c-1.19.05-2.24.31-3.13.81-1.12.62-2.03,1.57-2.72,2.87l-1.13,2-31.07,54.95c-1.31,2.35-.66,3.45,1.94,3.34l5.53-.22,14.03-.61c2.48-.11,4.44-1.32,5.86-3.67l13.97-24.97c1.25-2.34,3.21-3.55,5.86-3.68,2.43-.1,3.01.99,1.69,3.27l-14.37,25.16c-1.37,2.28-.73,3.36,1.92,3.24l19.48-.84c2.54-.1,4.5-1.29,5.86-3.57l8.47-14.76c2.52-4.44,3.12-7.79,1.81-10.08-1.32-2.26-4.5-3.29-9.52-3.08,4.88-.25,9.27-1.63,13.14-4.14,3.95-2.56,7.14-5.99,9.56-10.32l2.4-4.33c2.42-4.17,2.93-7.45,1.49-9.87Zm-24.24,4.5l-9.82,17.25c-1.26,2.33-3.21,3.55-5.87,3.66-2.43,0-3.03-1.12-1.77-3.33l9.83-17.25c.4-.74.87-1.33,1.4-1.85,1.1-1.03,2.51-1.58,4.23-1.65,1.7-.06,2.57.39,2.58,1.36,0,.49-.18,1.08-.58,1.81Z"/>
    </g>
  </g>
</svg>