<svg width="136" height="118" viewBox="0 0 136 118" fill="none" xmlns="http://www.w3.org/2000/svg">
<rect width="136" height="118" rx="20" fill="#0095FF"/>
<path d="M98.26 71.7689C93.6133 71.7689 89.1178 71.0133 84.9244 69.6533C83.6022 69.2 82.1289 69.54 81.1089 70.56L75.1778 78.0022C64.4867 72.9022 54.4756 63.2689 49.1489 52.2L56.5156 45.9289C57.5356 44.8711 57.8378 43.3978 57.4222 42.0756C56.0244 37.8822 55.3067 33.3867 55.3067 28.74C55.3067 26.7 53.6067 25 51.5667 25H38.4956C36.4556 25 34 25.9067 34 28.74C34 63.8356 63.2022 93 98.26 93C100.942 93 102 90.62 102 88.5422V75.5089C102 73.4689 100.3 71.7689 98.26 71.7689Z" fill="white"/>
</svg>
