<svg width="92" height="92" viewBox="0 0 92 92" fill="none" xmlns="http://www.w3.org/2000/svg">
<rect width="91.5618" height="91.5618" rx="20" fill="#0095FF"/>
<path d="M22.9499 66.1846H31.4326V45.5837L19.3145 36.4951V62.5491C19.3145 64.5607 20.9443 66.1846 22.9499 66.1846Z" fill="white"/>
<path d="M60.5162 66.1846H68.9989C71.0105 66.1846 72.6344 64.5547 72.6344 62.5491V36.4951L60.5162 45.5837" fill="white"/>
<path d="M60.5162 29.8303V45.5839L72.6344 36.4953V31.6481C72.6344 27.1522 67.5023 24.5892 63.9093 27.2855" fill="white"/>
<path d="M31.4326 45.5837V29.8301L45.9744 40.7364L60.5162 29.8301V45.5837L45.9744 56.49" fill="white"/>
<path d="M19.3145 31.6481V36.4953L31.4326 45.5839V29.8303L28.0395 27.2855C24.4404 24.5892 19.3145 27.1522 19.3145 31.6481Z" fill="white"/>
</svg>
