<svg width="92" height="92" viewBox="0 0 92 92" fill="none" xmlns="http://www.w3.org/2000/svg">
<rect x="0.123596" width="91.5618" height="91.5618" rx="20" fill="#0095FF"/>
<path d="M38.2849 45.8982C38.2849 41.6806 41.702 38.2607 45.9184 38.2607C50.1348 38.2607 53.5537 41.6806 53.5537 45.8982C53.5537 50.1158 50.1348 53.5358 45.9184 53.5358C41.702 53.5358 38.2849 50.1158 38.2849 45.8982ZM34.1574 45.8982C34.1574 52.3957 39.4228 57.6626 45.9184 57.6626C52.414 57.6626 57.6794 52.3957 57.6794 45.8982C57.6794 39.4007 52.414 34.1338 45.9184 34.1338C39.4228 34.1338 34.1574 39.4007 34.1574 45.8982ZM55.3965 33.6673C55.3963 34.2111 55.5573 34.7427 55.8591 35.195C56.1609 35.6472 56.5901 35.9997 57.0922 36.208C57.5943 36.4163 58.147 36.471 58.6802 36.3651C59.2134 36.2593 59.7032 35.9976 60.0877 35.6133C60.4723 35.2289 60.7342 34.7391 60.8405 34.2059C60.9468 33.6726 60.8926 33.1198 60.6847 32.6173C60.4769 32.1149 60.1248 31.6854 59.6729 31.3831C59.2211 31.0808 58.6897 30.9194 58.1461 30.9191H58.145C57.4164 30.9195 56.7176 31.2091 56.2023 31.7244C55.687 32.2397 55.3972 32.9385 55.3965 33.6673ZM36.6651 64.5471C34.432 64.4453 33.2183 64.0733 32.4117 63.7589C31.3424 63.3425 30.5794 62.8465 29.7772 62.0452C28.975 61.2439 28.4784 60.4814 28.064 59.4117C27.7495 58.6053 27.3776 57.3908 27.276 55.1571C27.165 52.7421 27.1428 52.0167 27.1428 45.8984C27.1428 39.7801 27.1668 39.0567 27.276 36.6397C27.3777 34.406 27.7525 33.1939 28.064 32.3851C28.4803 31.3154 28.9761 30.5522 29.7772 29.7498C30.5783 28.9474 31.3405 28.4506 32.4117 28.0361C33.2179 27.7215 34.432 27.3495 36.6651 27.2479C39.0794 27.1368 39.8046 27.1147 45.9184 27.1147C52.0322 27.1147 52.7581 27.1387 55.1744 27.2479C57.4075 27.3496 58.6192 27.7245 59.4278 28.0361C60.4972 28.4506 61.2602 28.9485 62.0624 29.7498C62.8646 30.5511 63.3593 31.3154 63.7756 32.3851C64.09 33.1915 64.462 34.406 64.5635 36.6397C64.6746 39.0567 64.6967 39.7801 64.6967 45.8984C64.6967 52.0167 64.6746 52.7401 64.5635 55.1571C64.4618 57.3908 64.088 58.6049 63.7756 59.4117C63.3593 60.4814 62.8635 61.2446 62.0624 62.0452C61.2613 62.8458 60.4972 63.3425 59.4278 63.7589C58.6216 64.0735 57.4075 64.4455 55.1744 64.5471C52.7602 64.6581 52.0349 64.6803 45.9184 64.6803C39.8019 64.6803 39.0787 64.6581 36.6651 64.5471ZM36.4755 23.1262C34.0372 23.2372 32.371 23.624 30.916 24.1903C29.4091 24.7752 28.1334 25.5599 26.8586 26.833C25.5839 28.1061 24.8015 29.3841 24.2168 30.8915C23.6506 32.3479 23.264 34.0136 23.1529 36.4526C23.0401 38.8954 23.0142 39.6764 23.0142 45.8982C23.0142 52.1201 23.0401 52.901 23.1529 55.3439C23.264 57.7831 23.6506 59.4486 24.2168 60.905C24.8015 62.4114 25.5841 63.6909 26.8586 64.9635C28.1332 66.236 29.4091 67.0196 30.916 67.6061C32.3738 68.1725 34.0372 68.5592 36.4755 68.6703C38.9189 68.7813 39.6984 68.809 45.9184 68.809C52.1385 68.809 52.9192 68.7832 55.3613 68.6703C57.7998 68.5592 59.4649 68.1725 60.9208 67.6061C62.4268 67.0196 63.7034 66.2366 64.9782 64.9635C66.2529 63.6904 67.0337 62.4114 67.62 60.905C68.1862 59.4486 68.5747 57.7829 68.6839 55.3439C68.7949 52.8992 68.8208 52.1201 68.8208 45.8982C68.8208 39.6764 68.7949 38.8954 68.6839 36.4526C68.5728 34.0134 68.1862 32.3469 67.62 30.8915C67.0337 29.385 66.2509 28.1081 64.9782 26.833C63.7054 25.5578 62.4268 24.7752 60.9227 24.1903C59.4649 23.624 57.7996 23.2354 55.3632 23.1262C52.921 23.0151 52.1403 22.9874 45.9202 22.9874C39.7002 22.9874 38.9189 23.0133 36.4755 23.1262Z" fill="white"/>
</svg>
